# xmcd
#
# Track frame offsets: 
#        150
#        20237
#        42557
#        61815
#        113342
#        137345
#        149280
#        176530
#        209137
#        225208
#        237677
#        249059
#        261017
#        274379
#        299869
#        314532
#        349157
#
# Disc length: 4659 seconds
#
# Revision: 0
# Processed by: cddbd v1.5.1PL2 Copyright (c) Steve Scherf et al.
# Submitted via: ExactAudioCopy v0.95b3
#
DISCID=09123111
DTITLE=The Blues Project - Anthology CD2
DYEAR=2004
DGENRE=Blues
TTITLE0=I Can't Keep From Crying, Sometimes
TTITLE1=Steve's Song
TTITLE2=You Can't Catch Me
TTITLE3=Two Trains Running
TTITLE4=Wake me, Shake Me
TTITLE5=Cheryl's Goin' Home
TTITLE6=Flute Thing
TTITLE7=Caress Me Baby
TTITLE8=Fly Away
TTITLE9=No Time Like the Right Time
TTITLE10=Mean Old Southern
TTITLE11=Gentle Dreams
TTITLE12=Lost in the Shuffle
TTITLE13=Black Night
TTITLE14=Visions of Flowers
TTITLE15=Little Rain
TTITLE16=CD Information
EXTD=
EXTT0=
EXTT1=
EXTT2=
EXTT3=
EXTT4=
EXTT5=
EXTT6=
EXTT7=
EXTT8=
EXTT9=
EXTT10=
EXTT11=
EXTT12=
EXTT13=
EXTT14=
EXTT15=
EXTT16=
PLAYORDER=
